<svg width="1000" height="1000" viewBox="0 0 1000 1000" fill="none" xmlns="http://www.w3.org/2000/svg">
<path d="M0 0H1000V1000H0V0Z" fill="black"/>
<path d="M189.286 325.591C187.703 323.158 186.912 321.941 185.853 321.064C184.953 320.321 183.918 319.759 182.804 319.411C181.492 319 180.041 319 177.138 319H105.013C96.1417 319 91.7062 319 89.2754 320.878C87.2485 322.444 85.9849 324.8 85.8013 327.355C85.581 330.419 88.0344 334.114 92.941 341.505L306.797 663.62C310.913 669.819 312.971 672.918 315.572 673.96C317.749 674.832 320.18 674.82 322.348 673.927C324.939 672.859 326.966 669.739 331.02 663.499L364.869 611.398C366.746 608.509 367.684 607.065 368.04 605.506C368.342 604.186 368.341 602.815 368.039 601.494C367.682 599.936 366.744 598.492 364.866 595.604L189.286 325.591Z" fill="white"/>
<path d="M354.288 325.575C352.705 323.147 351.913 321.933 350.854 321.059C349.955 320.317 348.921 319.757 347.809 319.41C346.498 319 345.049 319 342.151 319H272.889C264.053 319 259.635 319 257.207 320.872C255.182 322.433 253.916 324.781 253.726 327.331C253.498 330.388 255.928 334.078 260.787 341.458L472.741 663.381C476.87 669.652 478.935 672.788 481.548 673.838C483.735 674.716 486.179 674.701 488.355 673.797C490.956 672.717 492.984 669.557 497.039 663.238L612.49 483.309C614.324 480.45 615.241 479.021 615.59 477.481C615.886 476.176 615.887 474.821 615.594 473.516C615.247 471.975 614.333 470.544 612.504 467.682L521.773 325.688C520.196 323.22 519.408 321.986 518.344 321.096C517.442 320.342 516.401 319.771 515.279 319.417C513.957 319 512.492 319 509.563 319H437.966C429.108 319 424.679 319 422.249 320.876C420.223 322.44 418.959 324.793 418.773 327.346C418.55 330.407 420.994 334.101 425.883 341.487L533.117 503.513C538.006 510.899 540.45 514.593 540.227 517.654C540.041 520.207 538.777 522.56 536.751 524.124C534.321 526 529.892 526 521.034 526H492.849C489.951 526 488.502 526 487.191 525.59C486.079 525.243 485.045 524.683 484.146 523.941C483.087 523.067 482.295 521.853 480.712 519.425L354.288 325.575Z" fill="white"/>
<path d="M907.676 341.618C912.701 334.201 915.213 330.493 915.012 327.413C914.844 324.846 913.586 322.473 911.554 320.894C909.117 319 904.638 319 895.68 319H606.467C597.751 319 593.393 319 590.973 320.85C588.955 322.392 587.683 324.716 587.47 327.248C587.216 330.283 589.564 333.954 594.26 341.297L630.726 398.317C632.303 400.783 633.092 402.016 634.155 402.905C635.057 403.659 636.099 404.229 637.22 404.583C638.542 405 640.005 405 642.933 405H732.27C741.203 405 745.669 405 748.104 406.889C750.134 408.465 751.394 410.833 751.567 413.396C751.773 416.471 749.278 420.176 744.288 427.585L693.212 503.415C688.222 510.824 685.727 514.529 685.933 517.604C686.106 520.167 687.366 522.535 689.396 524.111C691.831 526 696.297 526 705.23 526H742.866C751.771 526 756.224 526 758.657 527.884C760.686 529.456 761.948 531.818 762.125 534.378C762.338 537.448 759.861 541.149 754.908 548.549L731.804 583.069C730.214 585.445 729.419 586.633 728.365 587.488C727.472 588.214 726.447 588.761 725.347 589.1C724.05 589.5 722.621 589.5 719.762 589.5H618.944C616.013 589.5 614.547 589.5 613.224 589.918C612.101 590.272 611.059 590.844 610.156 591.6C609.093 592.49 608.304 593.726 606.728 596.198L566.212 659.718C561.531 667.057 559.191 670.726 559.448 673.759C559.662 676.289 560.935 678.611 562.953 680.152C565.372 682 569.724 682 578.429 682H768.231C771.101 682 772.536 682 773.836 681.597C774.94 681.256 775.967 680.705 776.862 679.975C777.917 679.115 778.711 677.92 780.3 675.529L871.727 537.936C873.654 535.035 874.618 533.585 874.988 532.015C875.302 530.684 875.309 529.3 875.008 527.966C874.652 526.392 873.703 524.933 871.804 522.014L834.748 465.065C832.831 462.119 831.872 460.646 831.519 459.058C831.219 457.714 831.232 456.318 831.557 454.979C831.94 453.399 832.926 451.944 834.897 449.034L907.676 341.618Z" fill="white"/>
</svg>
